<?xml version="1.0" encoding="utf-8"?>
<!-- Generator: Adobe Illustrator 24.1.2, SVG Export Plug-In . SVG Version: 6.00 Build 0)  -->
<svg version="1.1" id="Warstwa_3" xmlns="http://www.w3.org/2000/svg" xmlns:xlink="http://www.w3.org/1999/xlink" x="0px" y="0px"
	 viewBox="0 0 430 430" style="enable-background:new 0 0 430 430;" xml:space="preserve">
<style type="text/css">
	.st0{fill:#121331;}
	.st1{fill:#08a88a;}
	.st2{fill:none;stroke:#08a88a;stroke-width:12.25;stroke-miterlimit:14;}
	.st3{fill-opacity:0;}
	.st4{fill:#131432;}
	.st5{fill:none;}
</style>
<g>
	<path class="st0" d="M215,389.3c-96.11,0-174.3-78.19-174.3-174.3S118.89,40.7,215,40.7S389.3,118.89,389.3,215
		S311.11,389.3,215,389.3z M215,52.03c-89.86,0-162.97,73.11-162.97,162.97S125.14,377.97,215,377.97S377.97,304.86,377.97,215
		S304.86,52.03,215,52.03z"/>
	<path class="st0" d="M336.52,337.73c-0.06,0-0.12,0-0.18,0c-3.21-0.1-5.73-2.78-5.63-5.98l0.16-5.13
		c-0.05-39.51-32.21-71.65-71.73-71.65h-88.67c-39.55,0-71.73,32.18-71.73,71.73c0,0.06,0,0.13,0,0.19l-0.15,4.46
		c-0.09,3.13-2.65,5.64-5.81,5.64c-3.21,0-5.81-2.59-5.81-5.8v-0.01c0-0.06,0-0.13,0-0.19l0.15-4.38
		c0.05-45.91,37.42-83.25,83.35-83.25h88.67c45.96,0,83.35,37.39,83.35,83.35c0,0.06,0,0.12,0,0.18l-0.16,5.22
		C342.23,335.24,339.65,337.73,336.52,337.73z"/>
	<path class="st1" d="M214.8,224.11c-34.15,0-61.94-27.79-61.94-61.94c0-34.15,27.79-61.94,61.94-61.94
		c18.35,0,35.64,8.07,47.45,22.13h0c9.34,11.12,14.49,25.26,14.49,39.81C276.74,196.32,248.96,224.11,214.8,224.11z M214.8,111.85
		c-27.75,0-50.32,22.58-50.32,50.32s22.57,50.32,50.32,50.32s50.32-22.57,50.32-50.32c0-11.82-4.18-23.31-11.76-32.34h0
		C243.76,118.4,229.71,111.85,214.8,111.85z"/>
</g>
</svg>
